<svg width="90" height="76" viewBox="0 0 90 76" fill="none" xmlns="http://www.w3.org/2000/svg">
<path d="M27.2775 23.9223C33.7226 23.484 40.1656 23.0498 46.6108 22.6055C52.638 22.1893 58.6631 21.7591 64.6903 21.349C65.1712 21.3168 65.5472 21.2183 65.8496 20.8102C69.8103 15.4585 73.7816 10.1128 77.7654 4.7752C78.1959 4.19821 78.0846 3.84639 77.4777 3.4805C72.3325 0.392516 66.7988 -0.755425 60.8241 0.501078C55.303 1.66309 50.4896 4.15197 46.3945 7.87725C45.6048 8.59497 44.874 8.75781 43.9962 8.10845C43.4439 7.69833 42.86 7.32439 42.3371 6.88411C38.998 4.07156 34.9932 2.57179 30.7888 1.42787C29.7913 1.15647 29.5078 1.45602 29.3608 2.35065C28.2603 9.09154 27.1158 15.8264 25.9943 22.5633C25.7528 24.0168 25.7654 24.0188 27.2817 23.9223H27.2775ZM27.0633 21.5842C28.1007 15.4545 29.1381 9.32273 30.1483 3.18899C30.2701 2.45519 30.4927 2.21193 31.2991 2.47127C35.1612 3.71169 38.935 5.09284 41.9927 7.8089C42.3497 8.12654 42.7613 8.38991 43.1625 8.65729C44.9664 9.85951 45.5712 9.80925 47.1862 8.38186C51.7875 4.31683 57.1952 1.76763 63.3841 0.969502C68.0505 0.36638 72.3787 1.65304 76.3983 3.92882C77.1207 4.33693 76.6419 4.70081 76.3773 5.06068C74.0336 8.22505 71.6815 11.3874 69.3315 14.5478C68.0358 16.2928 66.7253 18.0278 65.4485 19.7849C65.102 20.2634 64.7071 20.5307 64.0855 20.5689C59.7657 20.8383 55.4479 21.1158 51.1322 21.4153C44.8698 21.8516 38.6074 22.318 32.345 22.7522C31.0219 22.8447 29.6926 22.8387 28.7223 22.9895C26.8617 23.0458 26.8302 22.9995 27.0696 21.5842H27.0633Z" fill="#444445"/>
<path d="M62.2752 23.6107C62.1366 23.6107 61.9959 23.6288 61.8573 23.6409C61.8573 23.6389 61.8573 23.6369 61.8573 23.6348C57.4366 23.9545 53.0159 24.2822 48.5932 24.5938C41.2093 25.1165 33.8234 25.6432 26.4374 26.1257C25.6079 26.18 25.3117 26.4574 25.192 27.2194C24.6523 30.6592 24.0496 34.091 23.4784 37.5267C23.1844 39.2939 23.1907 39.2939 25.108 39.4527C25.4567 39.4809 25.8032 39.517 26.1518 39.5572C33.7835 40.4318 41.4151 41.3043 49.0468 42.1929C49.6432 42.2633 50.0149 42.0883 50.3635 41.6199C54.549 35.9667 58.7533 30.3275 62.9493 24.6843C63.1467 24.4189 63.4659 24.1515 63.237 23.7937C63.0102 23.4378 62.6091 23.6188 62.2752 23.6147V23.6107ZM57.3295 30.6572C54.8556 33.9824 52.3607 37.2955 49.9141 40.6409C49.5109 41.1917 49.093 41.3425 48.4294 41.2661C40.7326 40.3735 33.0337 39.4949 25.3327 38.6345C24.5074 38.542 24.2596 38.3188 24.4234 37.4524C25.0114 34.3262 25.5008 31.1839 25.988 28.0416C26.1014 27.3179 26.3345 26.9701 27.2018 26.9178C31.2802 26.6746 35.3522 26.3408 39.4264 26.0554C46.428 25.5628 53.4297 25.0823 60.4334 24.6018C60.8093 24.5757 61.1894 24.5978 61.8258 24.5978C60.2339 26.7449 58.7849 28.7031 57.3316 30.6572H57.3295Z" fill="#444445"/>
<path d="M1.38147 25.5708C8.48812 25.1225 15.5927 24.6541 22.6993 24.2219C23.3672 24.1817 23.5898 23.9384 23.6822 23.3333C24.1148 20.5227 24.5852 17.7182 25.0535 14.9137C25.7927 10.4908 26.5236 6.0679 27.3006 1.65104C27.4287 0.919257 27.2145 0.649862 26.4795 0.657904C25.6079 0.665946 24.7343 0.659914 23.8607 0.659914C22.462 0.631769 21.076 0.742341 19.6983 0.999673C9.04044 2.996 0.155023 12.5876 0.00171709 24.3344C-0.0150835 25.5769 0.0668194 25.6533 1.37937 25.5708H1.38147ZM1.00765 22.8769C1.37517 17.9715 3.27154 13.6029 6.49725 9.78916C10.4286 5.1391 15.5444 2.42103 21.7165 1.57867C23.0543 1.39572 24.4361 1.50831 25.799 1.48418C26.2737 1.47614 26.3703 1.67517 26.2926 2.11746C25.589 6.1644 24.9107 10.2134 24.2261 14.2623C23.7536 17.0608 23.2643 19.8553 22.8337 22.6598C22.7476 23.2187 22.5229 23.3755 21.9748 23.4076C17.5205 23.667 13.0663 23.9424 8.61413 24.2259C6.66736 24.3505 4.72269 24.5033 3.33034 24.6038C0.663241 24.636 0.854348 24.9054 1.00555 22.8789L1.00765 22.8769Z" fill="#444445"/>
<path d="M46.8649 44.1309C43.4648 43.7489 40.0648 43.3629 36.6648 42.981C32.2924 42.4904 27.9201 42.0039 23.4931 41.5094C22.6699 41.2822 22.7455 41.9617 22.6678 42.41C22.0966 45.7433 21.5611 49.0825 20.9835 52.4138C20.8743 53.039 21.0318 53.4753 21.5086 53.9236C25.1543 57.3433 28.7874 60.7771 32.3911 64.237C32.9519 64.7758 33.1808 64.6994 33.6092 64.1184C38.2147 57.8921 42.8516 51.684 47.4739 45.4678C48.2278 44.4546 48.1312 44.2716 46.8628 44.1289L46.8649 44.1309ZM46.1529 45.695C41.9045 51.3824 37.6728 57.0799 33.4643 62.7935C32.9981 63.4268 32.7356 63.3323 32.2294 62.8458C28.9743 59.7156 25.6919 56.6095 22.4032 53.5115C22.0126 53.1436 21.874 52.7736 21.9601 52.263C22.4746 49.2273 22.9786 46.1916 23.47 43.1539C23.554 42.6312 23.7724 42.3437 24.3941 42.4985C28.1469 42.9106 31.927 43.3227 35.7072 43.7449C39.0358 44.1189 42.3623 44.5209 45.693 44.8728C46.3882 44.9451 46.6822 44.9874 46.1529 45.695Z" fill="#444445"/>
<path d="M23.0081 27.4164C23.1446 26.6464 22.9304 26.3448 22.021 26.4152C16.0043 26.8756 9.98551 27.2877 3.9646 27.7139L1.04129 27.8426C0.390265 27.8586 -0.141054 27.9753 0.0836544 28.8498C0.772479 31.5357 1.87712 34.0447 3.39757 36.3908C3.69789 36.8532 4.0654 37.0784 4.65762 37.1246C5.94287 37.2271 7.21971 37.4282 8.50286 37.5749C12.3481 38.0172 16.1954 38.4495 20.0386 38.8998C20.6497 38.9722 21.0025 38.8616 21.1159 38.1881C21.7228 34.5935 22.3676 31.0049 23.006 27.4164H23.0081ZM20.3074 37.4282C20.236 37.8725 20.1898 38.0373 19.6165 37.969C16.2458 37.5629 12.8668 37.2271 9.492 36.8492C7.94214 36.6743 6.40278 36.437 4.85293 36.2662C4.47071 36.2239 4.30271 36.0008 4.1389 35.7535C2.87256 33.8195 1.94012 31.7448 1.2702 29.5574C1.06859 28.9 1.4676 28.6487 2.00942 28.6507C3.23167 28.6548 4.43921 28.5181 5.65096 28.4276C9.31979 28.1542 12.9886 27.8948 16.6575 27.6355C17.8356 27.5511 19.0137 27.4807 19.9819 27.4184C22.5209 27.4103 21.979 27.3199 21.6787 29.1714C21.2335 31.9257 20.7463 34.6739 20.3074 37.4282Z" fill="#444445"/>
<path d="M75.3652 47.3415C69.4367 46.66 63.5061 45.9986 57.5755 45.3331C55.4607 45.0959 53.3438 44.8647 51.4664 44.6577C50.7523 44.5571 50.5486 44.8969 50.3302 45.1964C49.4125 46.457 48.522 47.7396 47.5854 48.9881C43.4 54.5509 39.3762 60.2242 35.0606 65.6985C34.6804 66.181 34.7729 66.5047 35.1929 66.9008C38.2611 69.7817 41.3314 72.6646 44.3576 75.5837C45.0044 76.2089 45.3992 76.0763 45.9915 75.5415C55.9374 66.5831 65.8981 57.6408 75.8545 48.6925C76.1464 48.4312 76.6694 48.2482 76.5266 47.7677C76.3649 47.2169 75.7726 47.3878 75.3652 47.3415ZM74.353 48.8916C70.9236 51.9333 67.4794 54.961 64.0479 58.0027C62.6388 59.2532 61.2548 60.5278 59.8604 61.7923C55.7001 65.5618 51.5441 69.3314 47.3796 73.0988C47.1276 73.328 46.8252 73.5029 46.5648 73.7241C45.0905 74.9826 45.1073 74.9705 43.7129 73.6678C41.2348 71.3558 38.9079 68.8951 36.3059 66.7038C35.8229 66.2976 36.1589 66.0021 36.3983 65.6784C38.3745 63.0086 40.3507 60.3388 42.3247 57.665C45.1619 53.8211 47.9928 49.9732 50.8363 46.1333C51.0652 45.8237 51.2332 45.3673 51.7856 45.5483C56.0445 46.0589 60.2867 46.5836 64.533 47.0742C67.7104 47.4401 70.8941 47.7617 74.0737 48.1055C74.3047 48.1296 74.626 48.011 74.7415 48.2583C74.8885 48.5739 74.5378 48.7247 74.3509 48.8896L74.353 48.8916Z" fill="#444445"/>
<path d="M89.992 23.2287C89.9626 21.6767 89.9584 21.6666 88.3309 21.7812C82.0264 22.2235 75.7283 22.7844 69.4155 23.0598C67.2293 23.1543 66.0407 23.9726 64.8562 25.6372C61.0593 30.9728 57.0544 36.1717 53.1357 41.4269C52.4553 42.3376 52.5267 42.5708 53.4927 42.6834C61.6431 43.6243 69.7977 44.541 77.9418 45.5201C79.0296 45.6508 79.7311 45.303 80.3779 44.5672C81.4594 43.3388 82.5557 42.1245 83.6645 40.9183C87.894 36.3205 89.7064 30.8542 89.9962 24.837C89.9962 24.3023 90.0046 23.7655 89.9962 23.2307L89.992 23.2287ZM85.0631 37.6916C83.9165 39.5673 82.186 41.1133 80.7181 42.808C80.6509 42.8844 80.548 42.9407 80.5039 43.0272C79.4811 45.0155 77.7066 44.6375 75.9362 44.4043C73.3552 44.0646 70.7637 43.7871 68.1764 43.4876C65.5891 43.188 62.9997 42.9005 60.4124 42.5909C58.3544 42.3436 56.2795 42.219 54.0912 41.7928C55.1791 40.3332 56.206 38.9581 57.2266 37.581C60.2528 33.4979 63.3064 29.4328 66.2801 25.3155C66.9479 24.3907 67.664 24.0228 68.8443 23.9685C72.4564 23.7997 76.0559 23.3895 79.6701 23.2428C82.039 23.1463 84.3848 22.7844 86.7579 22.7884C87.0036 22.7884 87.2493 22.7985 87.4908 22.7724C89.1394 22.5874 89.1142 22.5834 89.1436 24.2018C89.2297 29.1011 87.5874 33.5582 85.061 37.6896L85.0631 37.6916Z" fill="#444445"/>
<path d="M69.1635 19.8814C68.9661 20.1448 68.6511 20.4102 68.8443 20.774C69.048 21.158 69.4596 20.967 69.7894 20.9851C69.9259 20.9932 70.0666 20.961 70.2052 20.9469C70.2052 20.951 70.2052 20.957 70.2052 20.961C76.1505 20.5328 82.0958 20.1086 88.0411 19.6703C89.5112 19.5618 89.5595 19.4431 89.1311 18.1062C87.577 13.2511 84.6369 9.25643 80.861 5.76436C80.3653 5.30598 80.0314 5.26578 79.624 5.84477C78.9625 6.78765 78.2569 7.70239 77.5659 8.62516C74.7644 12.3766 71.9608 16.126 69.1614 19.8774L69.1635 19.8814ZM79.7374 7.25608C80.1196 6.7394 80.3674 6.60672 80.924 7.1254C84.2169 10.1893 86.6047 13.7859 88.0747 17.9514C88.2952 18.5767 88.2532 18.8159 87.4783 18.8601C85.4622 18.9767 83.4524 19.1939 81.4364 19.3366C78.2359 19.5638 75.0353 19.7628 71.7256 19.9819C71.4022 19.9196 70.789 20.2473 70.579 19.8553C70.3795 19.4834 70.9192 19.1155 71.1712 18.7757C74.021 14.9338 76.8897 11.102 79.7353 7.25809L79.7374 7.25608Z" fill="#444445"/>
<path d="M19.7404 41.063C18.766 41.0047 17.7978 40.86 16.8255 40.7514C13.8791 40.4217 10.9327 40.092 7.83718 39.7462C7.70697 39.7502 7.40246 39.7422 7.29326 40.0619C7.15465 40.47 7.50746 40.667 7.74477 40.8921C11.17 44.1389 14.5994 47.3817 18.0246 50.6285C18.2305 50.8235 18.4342 51.0186 18.745 50.9401C19.0453 50.8638 19.018 50.5843 19.0537 50.3612C19.5157 47.5205 19.963 44.6777 20.4481 41.8411C20.5531 41.2299 20.3179 41.0972 19.7383 41.063H19.7404ZM19.4275 42.7417C19.081 44.6798 18.7072 46.6158 18.4615 48.5659C18.3376 49.553 18.0099 49.3218 17.5038 48.8755C17.0943 48.5116 16.6911 48.1437 16.2984 47.7637C13.9673 45.5121 11.6404 43.2584 9.10562 40.8037C10.9768 40.9886 12.6275 41.1374 14.276 41.3204C15.7629 41.4832 17.2413 41.7265 18.7324 41.8491C19.4317 41.9054 19.5262 42.1748 19.4254 42.7457L19.4275 42.7417Z" fill="#444445"/>
<path d="M28.716 22.9915C26.8553 23.0478 26.8238 23.0015 27.0632 21.5862C28.1006 15.4565 29.1381 9.32475 30.1482 3.19101C30.27 2.45721 30.4926 2.21395 31.2991 2.4733C35.1611 3.71372 38.9349 5.09486 41.9926 7.81092C42.3497 8.12856 42.7613 8.39193 43.1624 8.65931C44.9664 9.86153 45.5712 9.81127 47.1861 8.38389C51.7874 4.31885 57.1951 1.76965 63.384 0.971523C68.0504 0.368401 72.3786 1.65506 76.3982 3.93084C77.1206 4.33895 76.6418 4.70283 76.3772 5.0627C74.0335 8.22707 71.6814 11.3894 69.3314 14.5498C68.0357 16.2948 66.7252 18.0298 65.4484 19.7869C65.1019 20.2654 64.7071 20.5328 64.0854 20.571C59.7656 20.8404 55.4478 21.1178 51.1322 21.4173C44.8697 21.8536 38.6073 22.32 32.3449 22.7543C31.0218 22.8467 29.6925 22.8407 28.7223 22.9915H28.716Z" fill="#C40006"/>
<path d="M51.7854 45.5503C56.0443 46.0609 60.2865 46.5856 64.5328 47.0761C67.7103 47.442 70.894 47.7637 74.0735 48.1075C74.3045 48.1316 74.6258 48.013 74.7413 48.2603C74.8883 48.5759 74.5376 48.7267 74.3507 48.8915C70.9213 51.9333 67.4772 54.961 64.0456 58.0027C62.6365 59.2532 61.2525 60.5278 59.8581 61.7923C55.6978 65.5618 51.5418 69.3313 47.3773 73.0988C47.1253 73.328 46.8229 73.5029 46.5625 73.7241C45.0883 74.9826 45.1051 74.9705 43.7106 73.6678C41.2325 71.3558 38.9056 68.8951 36.3057 66.7037C35.8227 66.2976 36.1587 66.0021 36.3981 65.6784C38.3743 63.0086 40.3505 60.3388 42.3245 57.6649C45.1618 53.8211 47.9927 49.9731 50.8362 46.1333C51.0651 45.8237 51.2331 45.3673 51.7854 45.5482V45.5503Z" fill="#79557E"/>
<path d="M54.0934 41.7948C55.1812 40.3353 56.2082 38.9601 57.2288 37.583C60.255 33.4999 63.3085 29.4348 66.2822 25.3175C66.9501 24.3928 67.6662 24.0248 68.8464 23.9706C72.4586 23.8017 76.0581 23.3916 79.6723 23.2448C82.0412 23.1483 84.387 22.7864 86.7601 22.7905C87.0058 22.7905 87.2515 22.8005 87.493 22.7744C89.1416 22.5894 89.1164 22.5854 89.1458 24.2038C89.2319 29.1031 87.5896 33.5602 85.0632 37.6916C83.9166 39.5673 82.1861 41.1133 80.7182 42.8081C80.651 42.8845 80.5481 42.9407 80.504 43.0272C79.4812 45.0155 77.7067 44.6375 75.9363 44.4043C73.3553 44.0646 70.7638 43.7871 68.1765 43.4876C65.5892 43.188 62.9998 42.9005 60.4125 42.5909C58.3545 42.3437 56.2796 42.219 54.0913 41.7928L54.0934 41.7948Z" fill="#39667B"/>
<path d="M61.8258 24.5978C60.234 26.7449 58.7849 28.703 57.3317 30.6571C54.8578 33.9824 52.3629 37.2955 49.9163 40.6408C49.5131 41.1917 49.0952 41.3424 48.4316 41.2661C40.7348 40.3734 33.0359 39.4949 25.3349 38.6344C24.5096 38.542 24.2618 38.3188 24.4256 37.4523C25.0136 34.3261 25.5029 31.1839 25.9901 28.0416C26.1035 27.3179 26.3367 26.9701 27.204 26.9178C31.2823 26.6745 35.3544 26.3408 39.4285 26.0553C46.4302 25.5628 53.4318 25.0823 60.4356 24.6018C60.8115 24.5757 61.1916 24.5978 61.8279 24.5978H61.8258Z" fill="#EDB331"/>
<path d="M3.33018 24.6018C0.663088 24.634 0.854195 24.9034 1.0054 22.8769C1.37291 17.9715 3.26928 13.6029 6.495 9.78913C10.4284 5.13906 15.5442 2.421 21.7163 1.57864C23.0541 1.39569 24.4359 1.50827 25.7989 1.48415C26.2735 1.47611 26.3701 1.67514 26.2924 2.11742C25.5889 6.16437 24.9106 10.2133 24.2259 14.2623C23.7534 17.0608 23.2641 19.8552 22.8336 22.6597C22.7475 23.2186 22.5228 23.3754 21.9747 23.4076C17.5204 23.667 13.0661 23.9424 8.61397 24.2258C6.6672 24.3505 4.72253 24.5033 3.33018 24.6038V24.6018Z" fill="#3F93A5"/>
<path d="M24.3919 42.4984C28.1447 42.9106 31.9249 43.3227 35.705 43.7449C39.0336 44.1188 42.3601 44.5209 45.6909 44.8727C46.386 44.9451 46.68 44.9873 46.1508 45.695C41.9023 51.3824 37.6707 57.0799 33.4621 62.7935C32.9959 63.4267 32.7334 63.3322 32.2273 62.8457C28.9722 59.7155 25.6897 56.6095 22.401 53.5114C22.0104 53.1435 21.8718 52.7736 21.9579 52.263C22.4724 49.2272 22.9764 46.1915 23.4679 43.1538C23.5519 42.6311 23.7703 42.3436 24.3919 42.4984Z" fill="#7FB7D1"/>
<path d="M19.9816 27.4184C22.5206 27.4104 21.9788 27.3199 21.6785 29.1715C21.2333 31.9257 20.7461 34.6739 20.3071 37.4282C20.2357 37.8725 20.1895 38.0374 19.6162 37.969C16.2456 37.5629 12.8666 37.2272 9.49175 36.8492C7.9419 36.6743 6.40254 36.4371 4.85268 36.2662C4.47047 36.224 4.30246 36.0008 4.13866 35.7535C2.87231 33.8195 1.93988 31.7448 1.26995 29.5575C1.06835 28.9001 1.46736 28.6488 2.00918 28.6508C3.23143 28.6548 4.43897 28.5181 5.65071 28.4276C9.31954 28.1542 12.9884 27.8949 16.6572 27.6355C17.8354 27.5511 19.0135 27.4807 19.9816 27.4184Z" fill="#59355E"/>
<path d="M71.7256 19.9799C71.4022 19.9176 70.789 20.2453 70.579 19.8533C70.3795 19.4813 70.9192 19.1134 71.1712 18.7737C74.021 14.9318 76.8897 11.1 79.7353 7.25608C80.1175 6.7394 80.3653 6.60671 80.9219 7.1254C84.2148 10.1893 86.6026 13.7859 88.0726 17.9514C88.2931 18.5767 88.2511 18.8159 87.4762 18.8601C85.4601 18.9767 83.4504 19.1939 81.4343 19.3366C78.2338 19.5638 75.0332 19.7628 71.7235 19.9819L71.7256 19.9799Z" fill="#D86D1C"/>
<path d="M9.10757 40.7997C10.9787 40.9846 12.6294 41.1334 14.278 41.3163C15.7648 41.4792 17.2433 41.7224 18.7343 41.8451C19.4336 41.9014 19.5281 42.1707 19.4273 42.7417C19.0808 44.6797 18.707 46.6158 18.4613 48.5658C18.3374 49.553 18.0098 49.3218 17.5037 48.8754C17.0942 48.5116 16.6909 48.1437 16.2982 47.7637C13.9671 45.512 11.6403 43.2584 9.10547 40.8037L9.10757 40.7997Z" fill="#90BA6F"/>
</svg>
