<svg width="36" height="36" viewBox="0 0 36 36" fill="none" xmlns="http://www.w3.org/2000/svg">
<path d="M15 13.9995L22.9995 17.9925L15 22.0005V13.9995ZM36 7.5V28.5C36 32.6415 32.643 36 28.5 36H7.5C3.3585 36 0 32.6415 0 28.5V7.5C0 3.3585 3.3585 0 7.5 0H28.5C32.643 0 36 3.3585 36 7.5ZM30 18C29.97 11.8155 29.5155 9.45 25.6155 9.1845C22.011 8.9385 13.9845 8.94 10.386 9.1845C6.489 9.45 6.03 11.805 6 18C6.03 24.1845 6.4845 26.55 10.3845 26.8155C13.983 27.06 22.0095 27.0615 25.614 26.8155C29.511 26.55 29.97 24.195 30 18Z" fill="#5F5F60"/>
</svg>
